<?xml version="1.0" encoding="UTF-8" standalone="no"?>
<svg
   xmlns:dc="http://purl.org/dc/elements/1.1/"
   xmlns:cc="http://creativecommons.org/ns#"
   xmlns:rdf="http://www.w3.org/1999/02/22-rdf-syntax-ns#"
   xmlns:svg="http://www.w3.org/2000/svg"
   xmlns="http://www.w3.org/2000/svg"
   xmlns:sodipodi="http://sodipodi.sourceforge.net/DTD/sodipodi-0.dtd"
   xmlns:inkscape="http://www.inkscape.org/namespaces/inkscape"
   width="524.02991"
   height="230"
   version="1.1"
   id="svg4"
   sodipodi:docname="star-wars-logo.svg"
   inkscape:version="1.0.2 (e86c8708, 2021-01-15)"
   inkscape:export-filename="G:\Users\suitedoalex\sites\star-wars-logo-0.png"
   inkscape:export-xdpi="561.73712"
   inkscape:export-ydpi="561.73712">
  <metadata
     id="metadata10">
    <rdf:RDF>
      <cc:Work
         rdf:about="">
        <dc:format>image/svg+xml</dc:format>
        <dc:type
           rdf:resource="http://purl.org/dc/dcmitype/StillImage" />
        <dc:title />
      </cc:Work>
    </rdf:RDF>
  </metadata>
  <defs
     id="defs8" />
  <sodipodi:namedview
     pagecolor="#ffffff"
     bordercolor="#666666"
     borderopacity="1"
     objecttolerance="10"
     gridtolerance="10"
     guidetolerance="10"
     inkscape:pageopacity="0"
     inkscape:pageshadow="2"
     inkscape:window-width="1680"
     inkscape:window-height="925"
     id="namedview6"
     showgrid="false"
     inkscape:zoom="0.32617188"
     inkscape:cx="54.67601"
     inkscape:cy="205.11518"
     inkscape:window-x="0"
     inkscape:window-y="23"
     inkscape:window-maximized="0"
     inkscape:current-layer="svg4"
     inkscape:document-rotation="0"
     lock-margins="false"
     fit-margin-top="0"
     fit-margin-left="0"
     fit-margin-right="0"
     fit-margin-bottom="0"
     inkscape:showpageshadow="false"
     showborder="false" />
  <path
     d="m 223.7299,180.97892 h -15.974 c -0.5629,0 -0.967,-0.63505 -0.967,-1.24124 0,-0.21538 8.4999,-27.61924 8.4999,-27.61924 0.3031,-1.02475 0.332,-1.05472 0.4475,-1.05472 h 0.014 c 0.1287,0 0.1443,0.03 0.4463,1.05472 0,0 8.4999,27.40386 8.4999,27.61924 0,0.60619 -0.433,1.24124 -0.9659,1.24124 m 21.5441,-62.70035 a 1.3911207,1.3911207 0 0 0 -1.2269,-0.99588 h -58.6602 a 1.4011128,1.4011128 0 0 0 -1.2268,0.98144 c 0,0 -32.4254,107.04524 -32.4254,107.24842 0,0.53291 0.4185,0.9659 0.967,0.9659 h 38.7748 a 1.0180828,1.0180828 0 0 0 0.6062,-0.73609 l 4.5165,-14.42968 a 0.97478371,0.97478371 0 0 1 0.8804,-0.62173 l 35.7739,-0.0278 c 0.3886,0.0289 0.7361,0.3031 0.8804,0.64949 l 4.6174,14.42968 c 0.072,0.33307 0.3031,0.63506 0.6062,0.75052 l 38.1543,-0.0144 c 0.5329,0 0.9814,-0.40413 0.9814,-0.93815 0,-0.18763 -33.2192,-107.26173 -33.2192,-107.26173 m 110.538,43.70539 -23.8256,0.0144 c 0,0 -0.6339,-0.18763 -0.6339,-0.90928 l -0.014,-12.02048 c 0,-0.72165 0.635,-0.90928 0.635,-0.90928 h 21.8472 c 2.5402,0 7.6772,1.27011 7.6772,7.14323 0,5.87313 -5.6855,6.68138 -5.6855,6.68138 m 114.2318,-9.30707 h 53.985 v -35.3986 h -69.4117 c -6.4926,0 -15.6276,3.34846 -20.8657,7.22983 -5.2381,3.88137 -12.8143,12.7277 -12.8143,24.92138 0,12.19368 7.403,21.67506 7.403,21.67506 3.7948,4.70405 13.3484,14.50296 13.3484,14.50296 0.2165,0.23093 0.3464,0.53291 0.3464,0.88041 0,0.73498 -0.5918,1.32673 -1.3279,1.32673 h -53.4654 c -6.5082,-0.0289 -6.9556,-2.61127 -6.9556,-2.98653 0,-0.66391 0.8082,-1.08247 0.8082,-1.08247 2.4392,-1.16908 7.4164,-5.05156 7.4164,-5.05156 10.5638,-8.2246 11.835,-19.50899 11.835,-25.55532 0,-6.06186 -0.9103,-16.78337 -11.7473,-26.17705 -10.837,-9.39478 -24.5606,-9.65458 -24.5606,-9.65458 H 287.7437 V 225.8545 c 0,0.34528 0.3175,0.61951 0.6639,0.61951 h 42.4697 v -30.44812 c 0,-0.53291 0.8216,0 0.8216,0 l 22.1225,22.22352 c 7.8648,7.95037 20.8668,8.2246 20.8668,8.2246 l 83.6393,-0.0144 c 14.272,0 22.2091,-7.76274 24.3874,-9.92769 2.1649,-2.17939 9.3947,-10.30295 9.3947,-23.76674 0,-13.44935 -6.1473,-20.33279 -8.7741,-23.49251 -2.3371,-2.82887 -11.6597,-12.69994 -13.6081,-14.74943 a 1.0214135,1.0214135 0 0 1 -0.3753,-0.7927 c 0,-0.4774 0.2742,-0.92372 0.6928,-1.05472 m -337.6915,73.79601 c 0.2887,0 0.4907,-0.20206 0.5773,-0.51959 0,0 32.8584,-107.92566 32.8584,-108.0278 0,-0.28866 -0.1732,-0.60507 -0.4474,-0.63394 h -40.5068 c -0.2021,0 -0.332,0.15876 -0.3753,0.37526 0,0.0144 -8.3844,28.06666 -8.3844,28.0811 -0.058,0.23093 -0.1732,0.37526 -0.3753,0.37526 -0.202,0 -0.3752,-0.20207 -0.4041,-0.37526 l -8.7731,-28.09553 c -0.029,-0.18874 -0.1732,-0.36083 -0.3752,-0.36083 l -44.7346,-0.0144 a 0.43299048,0.43299048 0 0 0 -0.2887,0.25979 l -7.8648,28.19656 c -0.043,0.24537 -0.1732,0.3897 -0.3897,0.3897 a 0.38636074,0.38636074 0 0 1 -0.3753,-0.33196 l -8.3412,-28.1677 A 0.39746306,0.39746306 0 0 0 43.8213,117.2761 H 0.6455 a 0.64393457,0.64393457 0 0 0 -0.6351,0.64837 c 0,0.0577 0.014,0.1732 0.014,0.1732 l 33.3491,107.8546 c 0.087,0.31753 0.2887,0.51959 0.5774,0.51959 l 35.8605,0.0144 c 0.2153,-0.0289 0.433,-0.27423 0.4896,-0.53402 0.014,0 12.4823,-40.13156 12.4823,-40.13156 0.072,-0.24536 0.1732,-0.38858 0.3753,-0.38858 0.2165,0 0.333,0.17209 0.3897,0.37415 l 12.1648,40.31918 a 0.51625789,0.51625789 0 0 0 0.4907,0.3464 H 132.353 M 101.1577,0.00448 c -6.5082,0 -15.6277,3.34735 -20.8657,7.22983 -5.2403,3.88137 -12.8143,12.7277 -12.8143,24.92138 0,12.19368 7.4019,21.67506 7.4019,21.67506 3.7959,4.70405 13.3483,14.57401 13.3483,14.57401 0.2165,0.23093 0.3464,0.53403 0.3464,0.86599 0,0.73608 -0.5918,1.34227 -1.3267,1.34227 H 0 v 38.58722 h 104.867 c 14.2576,0 22.208,-7.76385 24.3873,-9.94213 2.165,-2.16495 9.3804,-10.28963 9.3804,-23.75341 0,-13.44935 -6.1329,-20.40496 -8.7597,-23.56468 -2.3382,-2.82887 -11.6597,-12.6411 -13.6082,-14.67615 a 1.0735944,1.0735944 0 0 1 -0.3752,-0.80825 c 0,-0.47629 0.2742,-0.90928 0.6928,-1.05361 h 50.5066 v 73.79823 h 38.8326 v -73.6106 h 47.1449 V 0.00448 Z m 338.6951,44.70682 -23.8245,0.0144 c 0,0 -0.635,-0.18763 -0.635,-0.90928 l -0.014,-12.02049 c 0,-0.72165 0.635,-0.90928 0.635,-0.90928 h 21.8483 c 2.5391,0 7.6761,1.27011 7.6761,7.14324 0,5.87312 -5.6843,6.68137 -5.6843,6.68137 m 31.4295,25.83066 c -6.4948,-0.0289 -6.9556,-2.61126 -6.9556,-2.98652 0,-0.66392 0.8071,-1.08248 0.8071,-1.08248 2.4392,-1.16907 7.4175,-5.05155 7.4175,-5.05155 10.5639,-8.2246 11.834,-19.509 11.834,-25.55532 0,-6.06187 -0.9104,-16.78338 -11.7463,-26.17706 C 461.8025,0.29421 448.079,0.00555 448.079,0.00555 h -76.2952 v 108.57514 c 0,0.34639 0.3186,0.62173 0.665,0.62173 h 42.4686 v -30.4359 c 0,-0.54845 0.8227,0 0.8227,0 l 22.1225,22.20908 c 7.8638,7.95037 20.8657,8.2246 20.8657,8.2246 h 65.2983 V 70.54414 H 471.2839 Z M 309.8406,63.69623 h -15.9751 c -0.5917,0 -0.9659,-0.63505 -0.9659,-1.24124 0,-0.23093 8.4988,-27.61924 8.4988,-27.61924 0.3031,-1.02474 0.3886,-1.05472 0.4475,-1.05472 h 0.014 c 0.058,0 0.1443,0.03 0.4474,1.05472 0,0 8.4988,27.38942 8.4988,27.61924 0,0.60619 -0.3886,1.24124 -0.9659,1.24124 M 331.341,0.96701 A 1.330058,1.330058 0 0 0 330.1142,0 H 271.455 c -0.5773,0.0289 -1.068,0.41856 -1.2268,0.95258 0,0 -32.3965,107.07411 -32.3965,107.27617 0,0.53402 0.433,0.96701 0.9659,0.96701 h 38.7759 c 0.3176,-0.0999 0.5474,-0.40413 0.6195,-0.73608 l 4.5176,-14.44412 a 0.98366556,0.98366556 0 0 1 0.8804,-0.60619 h 35.7583 a 1.0613818,1.0613818 0 0 1 0.8949,0.62062 l 4.6186,14.42969 c 0.071,0.33307 0.3019,0.63505 0.605,0.75051 l 38.1543,-0.0144 c 0.534,0 0.967,-0.40413 0.967,-0.95258 0,-0.1732 -33.2481,-107.27617 -33.2481,-107.27617"
     id="path2"
     inkscape:connector-curvature="0"
     style="fill:#dba90d;fill-opacity:1;stroke-width:1.11023"
     inkscape:export-filename="G:\Users\suitedoalex\sites\star-wars-logo-3.png"
     inkscape:export-xdpi="750.36938"
     inkscape:export-ydpi="750.36938" />
</svg>
